Coordinates
version=1
nRows=11
nColumns=36
inDegrees=yes

Units are S.I. units (second, meters, Newtons, ...)
If the header above contains a line with 'inDegrees', this indicates whether rotational values are in degrees (yes) or radians (no).

endheader
time	pelvis_tilt	pelvis_list	pelvis_rotation	pelvis_tx	pelvis_ty	pelvis_tz	hip_flexion_r	hip_adduction_r	hip_rotation_r	knee_angle_r	knee_angle_r_beta	ankle_angle_r	subtalar_angle_r	mtp_angle_r	hip_flexion_l	hip_adduction_l	hip_rotation_l	knee_angle_l	knee_angle_l_beta	ankle_angle_l	subtalar_angle_l	mtp_angle_l	lumbar_extension	lumbar_bending	lumbar_rotation	arm_flex_r	arm_add_r	arm_rot_r	elbow_flex_r	pro_sup_r	arm_flex_l	arm_add_l	arm_rot_l	elbow_flex_l	pro_sup_l
      0.96000000	     -2.32892886	      0.33993225	     -0.77137790	      1.13646683	      0.93958588	     -0.23175768	     28.78755847	     -1.85175287	     -3.05220801	      1.61157023	      0.02812721	      3.58219065	      4.93020827	     -7.18553113	    -12.08444902	      0.44002841	     -6.33717457	      6.31870903	      0.11028228	     18.85281647	      5.12144430	     -7.18553113	     -5.31012316	     -9.27307703	    -10.77574118	     -6.87901809	     -8.35730507	     -8.08811310	     57.51682970	    108.34145848	     14.07804569	    -12.09062150	      1.07742226	     52.23655346	    105.39942512
      0.97000000	     -2.42954994	      0.34438632	     -0.67967442	      1.14811308	      0.93705510	     -0.23053855	     28.98767545	     -1.96876273	     -2.95727163	      1.77874067	      0.03104488	      4.04789758	      4.40233376	     -7.20023344	    -12.67387293	      0.26361435	     -6.78013971	      6.51482510	      0.11370515	     19.22770709	      6.08361709	     -7.20023344	     -5.35074077	     -8.89107138	    -10.87660664	     -6.86790958	     -8.27701483	     -8.72300554	     57.08814929	    108.29920429	     14.62673424	    -12.40551532	      2.20909718	     52.08509669	    105.09478098
      0.98000000	     -2.52644287	      0.23818408	     -0.50584703	      1.16003364	      0.93468587	     -0.22932120	     29.12798366	     -1.99383385	     -2.98412653	      2.33519560	      0.04075685	      4.19914473	      3.90805413	     -7.20176029	    -13.23422668	     -0.02924235	     -6.76683474	      6.77746052	      0.11828900	     19.20386211	      6.14807166	     -7.20176029	     -5.42577895	     -8.35443821	    -11.19246674	     -6.81440519	     -8.31829033	     -8.96943895	     56.74876995	    108.26211350	     14.90125837	    -12.48205318	      2.30434919	     52.08378547	    105.06715887
      0.99000000	     -2.65970839	      0.08955704	     -0.22230564	      1.17215132	      0.93238380	     -0.22796086	     29.21447257	     -1.93547728	     -2.38265735	      3.12834976	      0.05460000	      3.62175181	      1.12132469	     -7.21513212	    -13.58164908	     -0.46776576	     -7.03806782	      7.37427382	      0.12870536	     19.55908870	      6.75475322	     -7.21513212	     -5.38689559	     -7.82482963	    -11.36855424	     -6.78892302	     -8.16860819	     -9.66353744	     56.16326107	    108.21993581	     15.31551938	    -12.61883980	      3.08322050	     51.75400946	    104.83340449
      1.00000000	     -2.72090039	     -0.18387779	      0.07070833	      1.18455107	      0.93042287	     -0.22653607	     29.19850587	     -1.75088307	     -2.06640491	      4.16207181	      0.07264186	      2.76754893	     -0.90082327	     -7.22876443	    -13.98720383	     -1.03324752	     -7.10263113	      8.01782282	      0.13993741	     19.54960274	      6.91396184	     -7.22876443	     -5.45073496	     -7.11334160	    -11.58434016	     -6.76512457	     -8.13070070	    -10.12337479	     55.73764417	    108.21110536	     15.57464641	    -12.60604075	      3.39103087	     51.51065835	    104.64991884
      1.01000000	     -2.70969012	     -0.53916929	      0.36960606	      1.19727972	      0.92880921	     -0.22500292	     29.07447215	     -1.49766580	     -2.03091406	      5.34146123	      0.09322609	      2.32258829	     -1.39306916	     -7.23017872	    -14.47565473	     -1.68665998	     -6.93689814	      8.65879678	      0.15112451	     19.28861675	      6.87965571	     -7.23017872	     -5.57845715	     -6.29869661	    -11.81332225	     -6.69471759	     -8.18753978	    -10.34513684	     55.38147654	    108.17559878	     15.62974721	    -12.53920813	      3.45644684	     51.40089918	    104.63642562
      1.02000000	     -2.79758552	     -0.98143763	      0.71411543	      1.21006324	      0.92736636	     -0.22324155	     28.94781821	     -1.05519357	     -1.68941776	      6.26066722	      0.10926926	     -0.00674972	     -4.57812897	     -7.24335496	    -14.64128896	     -2.49170557	     -6.90055023	      9.70015741	      0.16929968	     19.07638783	      6.58720354	     -7.24335496	     -5.56503979	     -5.40074493	    -11.99019811	     -6.60655546	     -8.08077798	    -10.88464361	     54.75660140	    108.15092242	     15.76618977	    -12.43348327	      3.68966907	     50.96491307	    104.61998860
      1.03000000	     -2.74362942	     -1.52182817	      1.05324607	      1.22320790	      0.92642718	     -0.22140077	     28.69484720	     -0.56772400	     -2.09805298	      7.30285251	      0.12745882	     -1.15154787	     -5.19718888	     -7.24640873	    -14.93828651	     -3.40989281	     -6.84412915	     10.77349632	      0.18803298	     18.55474555	      6.28143765	     -7.24640873	     -5.68986169	     -4.37920405	    -12.16348857	     -6.48264040	     -8.08656732	    -11.16435905	     54.26714296	    108.10844019	     15.70700292	    -12.27296510	      3.69425349	     50.71332708	    104.61721686
      1.04000000	     -2.68492514	     -2.12727455	      1.37854620	      1.23650376	      0.92581324	     -0.21934433	     28.36620744	      0.03251819	     -2.42619987	      8.17596053	      0.14269743	     -2.61097361	     -5.92365484	     -7.24937270	    -15.13475991	     -4.40814686	     -6.68855044	     12.02878286	      0.20994187	     17.92147207	      5.82390798	     -7.24937270	     -5.80249606	     -3.28233622	    -12.26730632	     -6.35500697	     -8.07539732	    -11.42091903	     53.76422331	    108.06643469	     15.56491683	    -12.06444614	      3.65019428	     50.40384984	    104.62231288
      1.05000000	     -2.64717587	     -2.77265943	      1.66860490	      1.24988802	      0.92546844	     -0.21700740	     27.94211343	      0.79511762	     -2.12565052	      8.78005935	      0.15324094	     -5.04429031	     -8.14127781	     -7.26139324	    -15.24274321	     -5.40688763	     -6.15794427	     13.35673144	      0.23311894	     16.93737540	      4.68167668	     -7.26139324	     -5.85792449	     -2.17102630	    -12.34044016	     -6.18205245	     -8.05549614	    -11.61169557	     53.24508840	    108.05872403	     15.33450342	    -11.83185789	      3.43731080	     50.07136749	    104.77516395
      1.06000000	     -2.48256670	     -3.45322819	      1.94662742	      1.26346986	      0.92554550	     -0.21458710	     27.49036825	      1.53852002	     -2.66655459	      9.66250923	      0.16864260	     -5.87048192	     -8.43549584	     -7.26414190	    -15.27895155	     -6.51245294	     -6.01778137	     15.07101781	      0.26303888	     15.92783963	      4.09241669	     -7.26414190	     -6.05954846	     -1.00780804	    -12.29642924	     -6.01464320	     -8.04938500	    -11.76259367	     52.80000936	    108.02271164	     15.07820247	    -11.58153828	      3.37469313	     49.78684401	    104.79489449
